# xmcd CD database file
#
# Track frame offsets:
#	183
#	12885
#	25683
#	39325
#	59295
#	71975
#	93695
#	105933
#	121478
#	134538
#	147588
#	161143
#	182313
#	197358
#
# Disc length: 2761 seconds
#
# Revision: 5
# Processed by: cddbd v1.5.2PL0 Copyright (c) Steve Scherf et al.
# Submitted via: CDex 1.70beta2
#
DISCID=be0ac70e
DTITLE=Jonny Hill - SA Truck Gold - CD03
DYEAR=0
DGENRE=Country
TTITLE0=Green green grass of home (deutsch)
TTITLE1=Mein bester Freund
TTITLE2=Carolyn
TTITLE3=Dein erster Brief
TTITLE4=Kann Liebe alles verzeih'n (Some broken hearts never mend)
TTITLE5=Ruf Teddybär eins-vier
TTITLE6=The yellow rose of Texas
TTITLE7=Lucille
TTITLE8=Mexican Joe (Südlich der Grenze)
TTITLE9=Ich hab' dich heute Nacht so sehr vermißt (Take these chains from my heart)
TTITLE10=Ruby, mach's mir doch nicht so schwer (Ruby, don't take your love to town)
TTITLE11=Papillon
TTITLE12=Unerfüllte Träume (My exclusive dreams)
TTITLE13=Oh, Susanna
EXTD=
EXTT0=
EXTT1=
EXTT2=
EXTT3=
EXTT4=
EXTT5=
EXTT6=
EXTT7=
EXTT8=
EXTT9=
EXTT10=
EXTT11=
EXTT12=
EXTT13=
PLAYORDER=
